<?xml version="1.0" encoding="utf-8" ?>
<svg baseProfile="full" height="100%" version="1.1" width="100%" xmlns="http://www.w3.org/2000/svg" xmlns:ev="http://www.w3.org/2001/xml-events" xmlns:xlink="http://www.w3.org/1999/xlink"><defs /><circle cx="121.0" cy="166.0" fill="black" r="5" /><rect fill="rgb(122, 207, 245)" height="20" stroke="black" stroke-width="2" width="113.0" x="658.0" y="445.0" /><text fill="black" font-family="Arial" font-size="11" font-weight="normal" text-anchor="middle" x="714.5" y="460.0">PU Zarezerwuj pokój</text><rect fill="rgb(122, 207, 245)" height="32" stroke="black" stroke-width="2" width="165.0" x="636.0" y="140.0" /><text fill="black" font-family="Arial" font-size="11" font-weight="normal" text-anchor="middle" x="718.5" y="155.0">PU Sprawdzenie</text><text fill="black" font-family="Arial" font-size="11" font-weight="normal" text-anchor="middle" x="718.5" y="167.0">wolnych pokoi</text><rect fill="rgb(122, 207, 245)" height="32" stroke="black" stroke-width="2" width="151.0" x="339.0" y="225.0" /><text fill="black" font-family="Arial" font-size="11" font-weight="normal" text-anchor="middle" x="414.5" y="240.0">Podjęcie decyzji o</text><text fill="black" font-family="Arial" font-size="11" font-weight="normal" text-anchor="middle" x="414.5" y="252.0">rezerwacji</text><rect fill="rgb(122, 207, 245)" height="32" stroke="black" stroke-width="2" width="109.0" x="230.0" y="140.0" /><text fill="black" font-family="Arial" font-size="11" font-weight="normal" text-anchor="middle" x="284.5" y="155.0">Klient wybiera</text><text fill="black" font-family="Arial" font-size="11" font-weight="normal" text-anchor="middle" x="284.5" y="167.0">parametry pokoju</text><circle cx="422.0" cy="525.0" fill="red" r="5" /><rect fill="white" height="20" stroke="black" stroke-width="2" width="112.0" x="682.0" y="505.0" /><text fill="black" font-family="Arial" font-size="11" font-weight="normal" text-anchor="middle" x="738.0" y="520.0">koniec</text><polygon fill="black" points="619.0,515.0 626.0,508.0 626.0,522.0" /><rect fill="rgb(122, 207, 245)" height="20" stroke="black" stroke-width="2" width="114.0" x="841.0" y="445.0" /><text fill="black" font-family="Arial" font-size="11" font-weight="normal" text-anchor="middle" x="898.0" y="460.0">Rezerwacja pokoju</text><polygon fill="black" points="905.0,455.0 898.0,448.0 898.0,462.0" /><rect fill="rgb(122, 207, 245)" height="32" stroke="black" stroke-width="2" width="130.0" x="841.0" y="367.0" /><text fill="black" font-family="Arial" font-size="11" font-weight="normal" text-anchor="middle" x="906.0" y="382.0">Odrzucenie</text><text fill="black" font-family="Arial" font-size="11" font-weight="normal" text-anchor="middle" x="906.0" y="394.0">rezerwacji</text><polygon fill="black" points="913.0,383.0 906.0,376.0 906.0,390.0" /><polygon fill="rgb(122, 207, 245)" points="490.0,399.0 500.0,419.0 490.0,439.0 480.0,419.0" stroke="black" stroke-width="2" /><rect fill="rgb(122, 207, 245)" height="20" stroke="black" stroke-width="2" width="85.0" x="676.0" y="231.0" /><text fill="black" font-family="Arial" font-size="11" font-weight="normal" text-anchor="middle" x="718.5" y="246.0">Dane pokoju</text><rect fill="rgb(122, 207, 245)" height="20" stroke="black" stroke-width="2" width="85.0" x="453.0" y="146.0" /><text fill="black" font-family="Arial" font-size="11" font-weight="normal" text-anchor="middle" x="495.5" y="161.0">Parametry pokoju</text><line stroke="black" stroke-width="1" x1="125.99067415651992" x2="230.0" y1="165.69475999042692" y2="156.0" /><polygon fill="black" points="225.92058226343232,158.89108127360285 225.45654130437063,153.912661244285 230.0,156.0" /><line stroke="black" stroke-width="1" x1="500.0" x2="658.0" y1="419.0" y2="455.0" /><polygon fill="black" points="653.2226901950459,456.4755714240553 654.3334627591926,451.60051405918887 658.0,455.0" /><line stroke="black" stroke-width="1" x1="682.0" x2="426.9974982736523" y1="515.0" y2="524.841851320454" /><polygon fill="black" points="431.2279878404893,522.1767137958817 431.4208198579296,527.1729939934936 426.9974982736523,524.841851320454" /><line stroke="black" stroke-width="1" x1="771.0" x2="841.0" y1="455.0" y2="455.0" /><polygon fill="black" points="836.6698729810778,457.5 836.6698729810778,452.5 841.0,455.0" /><line stroke="black" stroke-width="1" x1="414.5" x2="490.0" y1="257.0" y2="399.0" /><polygon fill="black" points="485.75979936743295,396.3503399094265 490.1745726335469,394.0030484897673 490.0,399.0" /><line stroke="black" stroke-width="1" x1="500.0" x2="841.0" y1="419.0" y2="383.0" /><polygon fill="black" points="836.9562746567685,385.9407967200246 836.431332661477,380.96842948684684 841.0,383.0" /><line stroke="black" stroke-width="1" x1="339.0" x2="453.0" y1="156.0" y2="156.0" /><polygon fill="black" points="448.6698729810778,158.5 448.6698729810778,153.5 453.0,156.0" /><line stroke="black" stroke-width="1" x1="538.0" x2="636.0" y1="156.0" y2="156.0" /><polygon fill="black" points="631.6698729810778,158.5 631.6698729810778,153.5 636.0,156.0" /><line stroke="black" stroke-width="1" x1="718.5" x2="718.5" y1="172.0" y2="231.0" /><polygon fill="black" points="716.0,226.66987298107782 721.0,226.66987298107782 718.5,231.0" /><line stroke="black" stroke-width="1" x1="676.0" x2="490.0" y1="241.0" y2="241.0" /><polygon fill="black" points="494.3301270189222,238.5 494.3301270189222,243.5 490.0,241.0" /></svg>