<?xml version="1.0" encoding="utf-8" ?>
<svg baseProfile="full" height="100%" version="1.1" width="100%" xmlns="http://www.w3.org/2000/svg" xmlns:ev="http://www.w3.org/2001/xml-events" xmlns:xlink="http://www.w3.org/1999/xlink"><defs /><rect fill="none" height="489.0" stroke="black" stroke-width="2" width="1385.0" x="58.0" y="148.0" /><rect fill="white" height="15.0" stroke="black" stroke-width="2" width="746.0" x="697.0" y="148.0" /><text fill="black" font-family="Arial" font-size="11" font-weight="normal" text-anchor="middle" x="1070.0" y="159.0">System</text><rect fill="white" height="15.0" stroke="black" stroke-width="2" width="639.0" x="58.0" y="148.0" /><text fill="black" font-family="Arial" font-size="11" font-weight="normal" text-anchor="middle" x="377.5" y="159.0">Użytkownik</text><rect fill="white" height="474.0" stroke="black" stroke-width="2" width="746.0" x="697.0" y="163.0" /><rect fill="white" height="474.0" stroke="black" stroke-width="2" width="639.0" x="58.0" y="163.0" /><circle cx="250.0" cy="224.0" fill="rgb(0, 0, 0)" r="10.0" /><rect fill="rgb(122, 207, 245)" height="40.0" rx="10" ry="10" stroke="black" stroke-width="1" width="113.0" x="1116.0" y="499.0" /><text fill="black" font-family="Arial" font-size="11" font-weight="normal" text-anchor="middle" x="1172.5" y="516.0">PU Zarezerwuj pokój</text><rect fill="rgb(122, 207, 245)" height="40.0" rx="10" ry="10" stroke="black" stroke-width="1" width="131.0" x="985.0" y="289.0" /><text fill="black" font-family="Arial" font-size="11" font-weight="normal" text-anchor="middle" x="1050.5" y="306.0">PU Proponuj nowy pokój</text><rect fill="rgb(122, 207, 245)" height="40.0" rx="10" ry="10" stroke="black" stroke-width="1" width="165.0" x="745.0" y="204.0" /><text fill="black" font-family="Arial" font-size="11" font-weight="normal" text-anchor="middle" x="827.5" y="221.0">PU Sprawdzenie wolnych pokoi</text><rect fill="rgb(122, 207, 245)" height="40.0" rx="10" ry="10" stroke="black" stroke-width="1" width="113.0" x="1166.0" y="289.0" /><text fill="black" font-family="Arial" font-size="11" font-weight="normal" text-anchor="middle" x="1222.5" y="306.0">Proponuj inny pokój</text><rect fill="rgb(122, 207, 245)" height="40.0" rx="10" ry="10" stroke="black" stroke-width="1" width="196.0" x="972.0" y="204.0" /><text fill="black" font-family="Arial" font-size="11" font-weight="normal" text-anchor="middle" x="1070.0" y="221.0">Sprawdzenie czy pokój o podanych</text><text fill="black" font-family="Arial" font-size="11" font-weight="normal" text-anchor="middle" x="1070.0" y="233.0">parametrach jest dostępny</text><rect fill="rgb(122, 207, 245)" height="40.0" rx="10" ry="10" stroke="black" stroke-width="1" width="166.0" x="481.0" y="365.0" /><text fill="black" font-family="Arial" font-size="11" font-weight="normal" text-anchor="middle" x="564.0" y="382.0">Podjęcie decyzji o innym pokoju</text><rect fill="rgb(122, 207, 245)" height="40.0" rx="10" ry="10" stroke="black" stroke-width="1" width="151.0" x="96.0" y="289.0" /><text fill="black" font-family="Arial" font-size="11" font-weight="normal" text-anchor="middle" x="171.5" y="306.0">Podjęcie decyzji o rezerwacji</text><rect fill="rgb(122, 207, 245)" height="40.0" rx="10" ry="10" stroke="black" stroke-width="1" width="109.0" x="339.0" y="204.0" /><text fill="black" font-family="Arial" font-size="11" font-weight="normal" text-anchor="middle" x="393.5" y="221.0">Klient wybiera</text><text fill="black" font-family="Arial" font-size="11" font-weight="normal" text-anchor="middle" x="393.5" y="233.0">parametry pokoju</text><circle cx="541.0" cy="583.0" fill="none" r="10.0" stroke="black" stroke-width="1" /><circle cx="541.0" cy="583.0" fill="rgb(0, 0, 0)" r="6.0" stroke="none" /><polygon fill="rgb(122, 207, 245)" points="791.0,563.0 903.0,563.0 903.0,603.0 791.0,603.0 779.8,603.0 791.0,583.0 779.8,563.0" stroke="black" stroke-width="1" /><text fill="black" font-family="Arial" font-size="11" font-weight="normal" text-anchor="middle" x="847.0" y="578.0">koniec</text><polygon fill="rgb(122, 207, 245)" points="1413.0,499.0 1299.0,499.0 1299.0,539.0 1413.0,539.0 1423.0,519.0" stroke="black" stroke-width="1" /><text fill="black" font-family="Arial" font-size="11" font-weight="normal" text-anchor="middle" x="1356.0" y="514.0">Rezerwacja pokoju</text><polygon fill="rgb(122, 207, 245)" points="1429.0,427.0 1299.0,427.0 1299.0,467.0 1429.0,467.0 1439.0,447.0" stroke="black" stroke-width="1" /><text fill="black" font-family="Arial" font-size="11" font-weight="normal" text-anchor="middle" x="1364.0" y="442.0">Odrzucenie rezerwacji</text><polygon fill="rgb(122, 207, 245)" points="1432.0,365.0 1299.0,365.0 1299.0,405.0 1432.0,405.0 1442.0,385.0" stroke="black" stroke-width="1" /><text fill="black" font-family="Arial" font-size="11" font-weight="normal" text-anchor="middle" x="1365.5" y="380.0">Brak dostępnych pokoi</text><polygon fill="rgb(122, 207, 245)" points="1222.0,431.0 1230.0,447.0 1222.0,463.0 1214.0,447.0" stroke="black" stroke-width="1" /><polygon fill="rgb(122, 207, 245)" points="1017.0,471.0 1025.0,487.0 1017.0,503.0 1009.0,487.0" stroke="black" stroke-width="1" /><polygon fill="rgb(122, 207, 245)" points="1222.0,369.0 1230.0,385.0 1222.0,401.0 1214.0,385.0" stroke="black" stroke-width="1" /><polygon fill="rgb(122, 207, 245)" points="887.0,293.0 895.0,309.0 887.0,325.0 879.0,309.0" stroke="black" stroke-width="1" /><polygon fill="rgb(122, 207, 245)" points="384.0,293.0 392.0,309.0 384.0,325.0 376.0,309.0" stroke="black" stroke-width="1" /><polygon fill="rgb(122, 207, 245)" points="564.0,431.0 572.0,447.0 564.0,463.0 556.0,447.0" stroke="black" stroke-width="1" /><rect fill="rgb(122, 207, 245)" height="40.0" stroke="black" stroke-width="1" width="85.0" x="562.0" y="204.0" /><text fill="black" font-family="Arial" font-size="11" font-weight="normal" text-anchor="middle" x="604.5" y="219.0">Parametry pokoju</text><line stroke="black" stroke-width="1" x1="259.0" x2="338.0" y1="224.0" y2="224.0" /><line stroke="black" stroke-width="1" x1="325.0096189432334" x2="338.0" y1="231.5" y2="224.0" /><line stroke="black" stroke-width="1" x1="325.0096189432334" x2="338.0" y1="216.5" y2="224.0" /><line stroke="black" stroke-width="1" x1="990.0" x2="990.0" y1="244.0" y2="265.0" /><line stroke="black" stroke-width="1" x1="990.0" x2="887.0" y1="265.0" y2="265.0" /><line stroke="black" stroke-width="1" x1="887.0" x2="887.0" y1="265.0" y2="297.0" /><line stroke="black" stroke-width="1" x1="879.5" x2="887.0" y1="284.0096189432334" y2="297.0" /><line stroke="black" stroke-width="1" x1="894.5" x2="887.0" y1="284.0096189432334" y2="297.0" /><text fill="black" font-family="Arial" font-size="11" font-weight="normal" text-anchor="middle" x="937.0" y="329.0">niedostępny</text><line stroke="black" stroke-width="1" x1="893.0" x2="984.0" y1="309.0" y2="309.0" /><line stroke="black" stroke-width="1" x1="971.0096189432334" x2="984.0" y1="316.5" y2="309.0" /><line stroke="black" stroke-width="1" x1="971.0096189432334" x2="984.0" y1="301.5" y2="309.0" /><line stroke="black" stroke-width="1" x1="1221.0" x2="1222.0" y1="329.0" y2="373.0" /><line stroke="black" stroke-width="1" x1="1214.2067765197285" x2="1222.0" y1="360.1833831380296" y2="373.0" /><line stroke="black" stroke-width="1" x1="1229.2029040529026" x2="1222.0" y1="359.8425620577302" y2="373.0" /><text fill="black" font-family="Arial" font-size="11" font-weight="normal" text-anchor="middle" x="1272.0" y="379.0">brak</text><line stroke="black" stroke-width="1" x1="1228.0" x2="1298.0" y1="385.0" y2="385.0" /><line stroke="black" stroke-width="1" x1="1285.0096189432334" x2="1298.0" y1="392.5" y2="385.0" /><line stroke="black" stroke-width="1" x1="1285.0096189432334" x2="1298.0" y1="377.5" y2="385.0" /><line stroke="black" stroke-width="1" x1="171.0" x2="171.0" y1="329.0" y2="487.0" /><line stroke="black" stroke-width="1" x1="171.0" x2="1010.0" y1="487.0" y2="487.0" /><line stroke="black" stroke-width="1" x1="997.0096189432334" x2="1010.0" y1="494.5" y2="487.0" /><line stroke="black" stroke-width="1" x1="997.0096189432334" x2="1010.0" y1="479.5" y2="487.0" /><text fill="black" font-family="Arial" font-size="11" font-weight="normal" text-anchor="middle" x="1066.0" y="511.0">akceptacja</text><line stroke="black" stroke-width="1" x1="1017.0" x2="1017.0" y1="499.0" y2="517.0" /><line stroke="black" stroke-width="1" x1="1017.0" x2="1115.0" y1="517.0" y2="517.0" /><line stroke="black" stroke-width="1" x1="1102.0096189432334" x2="1115.0" y1="524.5" y2="517.0" /><line stroke="black" stroke-width="1" x1="1102.0096189432334" x2="1115.0" y1="509.5" y2="517.0" /><line stroke="black" stroke-width="1" x1="802.0" x2="550.0" y1="583.0" y2="583.0" /><line stroke="black" stroke-width="1" x1="562.9903810567666" x2="550.0" y1="575.5" y2="583.0" /><line stroke="black" stroke-width="1" x1="562.9903810567666" x2="550.0" y1="590.5" y2="583.0" /><line stroke="black" stroke-width="1" x1="563.0" x2="564.0" y1="405.0" y2="436.0" /><line stroke="black" stroke-width="1" x1="556.0850724474867" x2="564.0" y1="423.25818216114885" y2="436.0" /><line stroke="black" stroke-width="1" x1="571.0772741625822" x2="564.0" y1="422.7745627509845" y2="436.0" /><text fill="black" font-family="Arial" font-size="11" font-weight="normal" text-anchor="middle" x="942.0" y="379.0">jest</text><line stroke="black" stroke-width="1" x1="1216.0" x2="647.0" y1="385.0" y2="385.0" /><line stroke="black" stroke-width="1" x1="659.9903810567666" x2="647.0" y1="377.5" y2="385.0" /><line stroke="black" stroke-width="1" x1="659.9903810567666" x2="647.0" y1="392.5" y2="385.0" /><line stroke="black" stroke-width="1" x1="910.0" x2="972.0" y1="224.0" y2="224.0" /><line stroke="black" stroke-width="1" x1="959.0096189432334" x2="972.0" y1="231.5" y2="224.0" /><line stroke="black" stroke-width="1" x1="959.0096189432334" x2="972.0" y1="216.5" y2="224.0" /><line stroke="black" stroke-width="1" x1="1116.0" x2="1165.0" y1="310.0" y2="310.0" /><line stroke="black" stroke-width="1" x1="1152.0096189432334" x2="1165.0" y1="317.5" y2="310.0" /><line stroke="black" stroke-width="1" x1="1152.0096189432334" x2="1165.0" y1="302.5" y2="310.0" /><line stroke="black" stroke-width="1" x1="1229.0" x2="1299.0" y1="519.0" y2="519.0" /><line stroke="black" stroke-width="1" x1="1286.0096189432334" x2="1299.0" y1="526.5" y2="519.0" /><line stroke="black" stroke-width="1" x1="1286.0096189432334" x2="1299.0" y1="511.5" y2="519.0" /><text fill="black" font-family="Arial" font-size="11" font-weight="normal" text-anchor="middle" x="646.0" y="303.0">jest</text><line stroke="black" stroke-width="1" x1="881.0" x2="390.0" y1="309.0" y2="309.0" /><line stroke="black" stroke-width="1" x1="402.9903810567666" x2="390.0" y1="301.5" y2="309.0" /><line stroke="black" stroke-width="1" x1="402.9903810567666" x2="390.0" y1="316.5" y2="309.0" /><text fill="black" font-family="Arial" font-size="11" font-weight="normal" text-anchor="middle" x="479.0" y="438.0">akceptacja</text><line stroke="black" stroke-width="1" x1="558.0" x2="384.0" y1="447.0" y2="449.0" /><line stroke="black" stroke-width="1" x1="384.0" x2="384.0" y1="449.0" y2="321.0" /><line stroke="black" stroke-width="1" x1="391.5" x2="384.0" y1="333.9903810567666" y2="321.0" /><line stroke="black" stroke-width="1" x1="376.5" x2="384.0" y1="333.9903810567666" y2="321.0" /><line stroke="black" stroke-width="1" x1="378.0" x2="247.0" y1="309.0" y2="309.0" /><line stroke="black" stroke-width="1" x1="259.9903810567666" x2="247.0" y1="301.5" y2="309.0" /><line stroke="black" stroke-width="1" x1="259.9903810567666" x2="247.0" y1="316.5" y2="309.0" /><text fill="black" font-family="Arial" font-size="11" font-weight="normal" text-anchor="middle" x="885.0" y="441.0">rezygnacja</text><line stroke="black" stroke-width="1" x1="570.0" x2="1215.0" y1="447.0" y2="447.0" /><line stroke="black" stroke-width="1" x1="1202.0096189432334" x2="1215.0" y1="454.5" y2="447.0" /><line stroke="black" stroke-width="1" x1="1202.0096189432334" x2="1215.0" y1="439.5" y2="447.0" /><text fill="black" font-family="Arial" font-size="11" font-weight="normal" text-anchor="middle" x="1113.0" y="479.0">rezygnacja</text><line stroke="black" stroke-width="1" x1="1023.0" x2="1222.0" y1="487.0" y2="486.0" /><line stroke="black" stroke-width="1" x1="1222.0" x2="1222.0" y1="486.0" y2="459.0" /><line stroke="black" stroke-width="1" x1="1229.5" x2="1222.0" y1="471.9903810567666" y2="459.0" /><line stroke="black" stroke-width="1" x1="1214.5" x2="1222.0" y1="471.9903810567666" y2="459.0" /><line stroke="black" stroke-width="1" x1="1228.0" x2="1298.0" y1="447.0" y2="447.0" /><line stroke="black" stroke-width="1" x1="1285.0096189432334" x2="1298.0" y1="454.5" y2="447.0" /><line stroke="black" stroke-width="1" x1="1285.0096189432334" x2="1298.0" y1="439.5" y2="447.0" /><line stroke="black" stroke-width="1" x1="448.0" x2="561.0" y1="220.0" y2="220.0" /><line stroke="black" stroke-width="1" x1="548.0096189432334" x2="561.0" y1="227.5" y2="220.0" /><line stroke="black" stroke-width="1" x1="548.0096189432334" x2="561.0" y1="212.5" y2="220.0" /><line stroke="black" stroke-width="1" x1="648.0" x2="745.0" y1="224.0" y2="224.0" /><line stroke="black" stroke-width="1" x1="732.0096189432334" x2="745.0" y1="231.5" y2="224.0" /><line stroke="black" stroke-width="1" x1="732.0096189432334" x2="745.0" y1="216.5" y2="224.0" /></svg>