<?xml version="1.0" encoding="utf-8" ?>
<svg baseProfile="full" height="100%" version="1.1" width="100%" xmlns="http://www.w3.org/2000/svg" xmlns:ev="http://www.w3.org/2001/xml-events" xmlns:xlink="http://www.w3.org/1999/xlink"><defs /><circle cx="70" cy="20" fill="black" r="5" /><rect fill="rgb(122, 207, 245)" height="20" stroke="black" stroke-width="2" width="200" x="70" y="70.0" /><text fill="black" text-anchor="middle" x="170" y="85.0">PU Zarezerwuj pokój</text><rect fill="rgb(122, 207, 245)" height="32" stroke="black" stroke-width="2" width="200" x="70" y="124.0" /><text fill="black" text-anchor="middle" x="170" y="139.0">PU Sprawdzenie</text><text fill="black" text-anchor="middle" x="170" y="151.0">wolnych pokoi</text><rect fill="rgb(122, 207, 245)" height="32" stroke="black" stroke-width="2" width="200" x="70" y="196.0" /><text fill="black" text-anchor="middle" x="170" y="211.0">Podjęcie decyzji o</text><text fill="black" text-anchor="middle" x="170" y="223.0">rezerwacji</text><rect fill="rgb(122, 207, 245)" height="32" stroke="black" stroke-width="2" width="200" x="70" y="268.0" /><text fill="black" text-anchor="middle" x="170" y="283.0">Klient wybiera</text><text fill="black" text-anchor="middle" x="170" y="295.0">parametry pokoju</text><circle cx="70" cy="356" fill="red" r="5" /><rect fill="white" height="20" stroke="black" stroke-width="2" width="200" x="70" y="406.0" /><text fill="black" text-anchor="middle" x="170" y="421.0">koniec</text><rect fill="rgb(122, 207, 245)" height="20" stroke="black" stroke-width="2" width="200" x="70" y="466.0" /><text fill="black" text-anchor="middle" x="170" y="481.0">Rezerwacja pokoju</text><rect fill="rgb(122, 207, 245)" height="32" stroke="black" stroke-width="2" width="200" x="70" y="520.0" /><text fill="black" text-anchor="middle" x="170" y="535.0">Odrzucenie</text><text fill="black" text-anchor="middle" x="170" y="547.0">rezerwacji</text><line stroke="black" stroke-width="1" x1="71.77113531304897" x2="170.0" y1="24.675797226449294" y2="268.0" /><polygon fill="black" points="166.06082192954102,264.92057211008034 170.69727374656324,263.04885777599213 170.0,268.0" /><line stroke="black" stroke-width="1" x1="70.0" x2="74.28746462856272" y1="416.0" y2="358.57247877713763" /><polygon fill="black" points="76.4581417461518,363.0767168759924 71.47201856905528,362.70445935381076 74.28746462856272,358.57247877713763" /><line stroke="black" stroke-width="1" x1="170.0" x2="170.0" y1="90.0" y2="466.0" /><polygon fill="black" points="167.5,461.6698729810778 172.5,461.6698729810778 170.0,466.0" /></svg>