<?xml version="1.0" encoding="utf-8" ?>
<svg baseProfile="full" height="100%" version="1.1" width="100%" xmlns="http://www.w3.org/2000/svg" xmlns:ev="http://www.w3.org/2001/xml-events" xmlns:xlink="http://www.w3.org/1999/xlink"><defs /><circle cx="121.0" cy="166.0" fill="black" r="5" /><rect fill="rgb(122, 207, 245)" height="20" rx="10" ry="10" stroke="black" stroke-width="2" width="113.0" x="658.0" y="445.0" /><text fill="black" font-family="Arial" font-size="11" font-weight="normal" text-anchor="middle" x="714.5" y="460.0">PU Zarezerwuj pokój</text><rect fill="rgb(122, 207, 245)" height="32" rx="10" ry="10" stroke="black" stroke-width="2" width="165.0" x="636.0" y="140.0" /><text fill="black" font-family="Arial" font-size="11" font-weight="normal" text-anchor="middle" x="718.5" y="155.0">PU Sprawdzenie</text><text fill="black" font-family="Arial" font-size="11" font-weight="normal" text-anchor="middle" x="718.5" y="167.0">wolnych pokoi</text><rect fill="rgb(122, 207, 245)" height="32" rx="10" ry="10" stroke="black" stroke-width="2" width="151.0" x="339.0" y="225.0" /><text fill="black" font-family="Arial" font-size="11" font-weight="normal" text-anchor="middle" x="414.5" y="240.0">Podjęcie decyzji o</text><text fill="black" font-family="Arial" font-size="11" font-weight="normal" text-anchor="middle" x="414.5" y="252.0">rezerwacji</text><rect fill="rgb(122, 207, 245)" height="32" rx="10" ry="10" stroke="black" stroke-width="2" width="109.0" x="230.0" y="140.0" /><text fill="black" font-family="Arial" font-size="11" font-weight="normal" text-anchor="middle" x="284.5" y="155.0">Klient wybiera</text><text fill="black" font-family="Arial" font-size="11" font-weight="normal" text-anchor="middle" x="284.5" y="167.0">parametry pokoju</text><circle cx="422.0" cy="525.0" fill="red" r="5" /><polygon fill="rgb(122, 207, 245)" points="682.0,505.0 794.0,505.0 794.0,525.0 682.0,525.0 670.8,525.0 682.0,515.0 670.8,505.0" stroke="black" stroke-width="2" /><text fill="black" font-family="Arial" font-size="11" font-weight="normal" text-anchor="middle" x="738.0" y="520.0">koniec</text><polygon fill="rgb(122, 207, 245)" points="955.0,445.0 841.0,445.0 841.0,465.0 955.0,465.0 975.0,455.0" stroke="black" stroke-width="2" /><text fill="black" font-family="Arial" font-size="11" font-weight="normal" text-anchor="middle" x="898.0" y="460.0">Rezerwacja pokoju</text><polygon fill="rgb(122, 207, 245)" points="971.0,367.0 841.0,367.0 841.0,399.0 971.0,399.0 1003.0,383.0" stroke="black" stroke-width="2" /><text fill="black" font-family="Arial" font-size="11" font-weight="normal" text-anchor="middle" x="906.0" y="382.0">Odrzucenie</text><text fill="black" font-family="Arial" font-size="11" font-weight="normal" text-anchor="middle" x="906.0" y="394.0">rezerwacji</text><polygon fill="rgb(122, 207, 245)" points="490.0,399.0 500.0,419.0 490.0,439.0 480.0,419.0" stroke="black" stroke-width="2" /><rect fill="rgb(122, 207, 245)" height="20" stroke="black" stroke-width="2" width="85.0" x="676.0" y="231.0" /><text fill="black" font-family="Arial" font-size="11" font-weight="normal" text-anchor="middle" x="718.5" y="246.0">Dane pokoju</text><rect fill="rgb(122, 207, 245)" height="20" stroke="black" stroke-width="2" width="85.0" x="453.0" y="146.0" /><text fill="black" font-family="Arial" font-size="11" font-weight="normal" text-anchor="middle" x="495.5" y="161.0">Parametry pokoju</text><line stroke="black" stroke-width="1" x1="125.99067415651992" x2="230.0" y1="165.69475999042692" y2="156.0" /><polygon fill="black" points="224.28881516880526,160.047513783044 223.63915782611886,153.07772574199902 230.0,156.0" /><line stroke="black" stroke-width="1" x1="500.0" x2="658.0" y1="419.0" y2="455.0" /><polygon fill="black" points="651.3117662730641,457.06579999367744 652.8668478628697,450.24071968286444 658.0,455.0" /><line stroke="black" stroke-width="1" x1="682.0" x2="426.9974982736523" y1="515.0" y2="524.841851320454" /><polygon fill="black" points="432.920183667224,521.1106587860527 433.1901484916405,528.1054510627096 426.9974982736523,524.841851320454" /><line stroke="black" stroke-width="1" x1="771.0" x2="841.0" y1="455.0" y2="455.0" /><polygon fill="black" points="834.937822173509,458.5 834.937822173509,451.5 841.0,455.0" /><line stroke="black" stroke-width="1" x1="414.5" x2="490.0" y1="257.0" y2="399.0" /><polygon fill="black" points="484.0637191144061,395.2904758731971 490.24440168696566,392.00426788567427 490.0,399.0" /><line stroke="black" stroke-width="1" x1="500.0" x2="841.0" y1="419.0" y2="383.0" /><polygon fill="black" points="835.3387845194759,387.1171154080344 834.6038657260679,380.1558012815856 841.0,383.0" /><line stroke="black" stroke-width="1" x1="339.0" x2="453.0" y1="156.0" y2="156.0" /><polygon fill="black" points="446.93782217350895,159.5 446.93782217350895,152.5 453.0,156.0" /><line stroke="black" stroke-width="1" x1="538.0" x2="636.0" y1="156.0" y2="156.0" /><polygon fill="black" points="629.937822173509,159.5 629.937822173509,152.5 636.0,156.0" /><line stroke="black" stroke-width="1" x1="718.5" x2="718.5" y1="172.0" y2="231.0" /><polygon fill="black" points="715.0,224.93782217350892 722.0,224.93782217350892 718.5,231.0" /><line stroke="black" stroke-width="1" x1="676.0" x2="490.0" y1="241.0" y2="241.0" /><polygon fill="black" points="496.06217782649105,237.5 496.06217782649105,244.5 490.0,241.0" /></svg>