<?xml version="1.0" encoding="utf-8" ?>
<svg baseProfile="full" height="1600px" version="1.1" width="2000px" xmlns="http://www.w3.org/2000/svg" xmlns:ev="http://www.w3.org/2001/xml-events" xmlns:xlink="http://www.w3.org/1999/xlink"><defs><marker id="id1" markerHeight="10" markerWidth="10" orient="auto" refX="5" refY="5"><circle cx="5" cy="5" fill="black" r="3" /></marker><marker id="arrow" markerHeight="10" markerWidth="10" orient="auto" refX="10" refY="5"><path d="M0,0 L0,10 L10,5 Z" fill="black" /></marker><marker id="id2" markerHeight="20" markerWidth="20" orient="auto" refX="0" refY="10"><line stroke="black" stroke-width="1" x1="5" x2="15" y1="0" y2="20" /><line stroke="black" stroke-width="1" x1="5" x2="15" y1="20" y2="0" /></marker></defs><rect fill="#7ACFF5" height="117" stroke="black" width="247" x="366" y="155" /><text font-family="Arial" font-size="11px" text-anchor="middle" x="489.5" y="166">Mom</text><line stroke="black" x1="366" x2="613" y1="168" y2="168" /><text font-family="Arial" font-size="10px" text-anchor="start" x="368" y="178.3">- weight</text><text font-family="Arial" font-size="10px" text-anchor="start" x="368" y="189.3">+ year</text><text font-family="Arial" font-size="10px" text-anchor="start" x="368" y="200.3">- mileage</text><line stroke="black" x1="366" x2="613" y1="202.3" y2="202.3" /><text font-family="Arial" font-size="10px" text-anchor="start" x="368" y="212.3">+getMileage()</text><text font-family="Arial" font-size="10px" text-anchor="start" x="368" y="223.3">+getWeight()</text><text font-family="Arial" font-size="10px" text-anchor="start" x="368" y="234.3">+Mom()</text><line marker-start="url(#id2)" stroke="black" x1="790.0" x2="614.0" y1="195.0" y2="195.0" /><line marker-end="url(#arrow)" stroke="black" x1="790.0" x2="614.0" y1="195.0" y2="195.0" /><line marker-end="url(#id1)" stroke="black" x1="790.0" x2="614.0" y1="195.0" y2="195.0" /><line marker-start="url(#id2)" stroke="black" x1="437.0" x2="437.0" y1="392.0" y2="273.0" /><line marker-end="url(#arrow)" stroke="black" x1="437.0" x2="437.0" y1="392.0" y2="273.0" /><line marker-end="url(#id1)" stroke="black" x1="437.0" x2="437.0" y1="392.0" y2="273.0" /><line marker-start="url(#id2)" stroke="black" x1="841.0" x2="841.0" y1="378.0" y2="339.0" /><line stroke="black" x1="841.0" x2="841.0" y1="378.0" y2="339.0" /><line stroke="black" x1="841.0" x2="930.0" y1="339.0" y2="339.0" /><line stroke="black" x1="930.0" x2="930.0" y1="339.0" y2="428.0" /><line marker-end="url(#arrow)" stroke="black" x1="930.0" x2="891.0" y1="428.0" y2="428.0" /><line marker-end="url(#id1)" stroke="black" x1="930.0" x2="891.0" y1="428.0" y2="428.0" /><rect fill="#7ACFF5" height="87" stroke="black" width="89" x="791" y="163" /><text font-family="Arial" font-size="11px" text-anchor="middle" x="835.5" y="174">Dad</text><line stroke="black" x1="791" x2="880" y1="176" y2="176" /><text font-family="Arial" font-size="10px" text-anchor="start" x="793" y="186.3">- isThere</text><text font-family="Arial" font-size="10px" text-anchor="start" x="793" y="197.3">- power</text><line stroke="black" x1="791" x2="880" y1="199.3" y2="199.3" /><text font-family="Arial" font-size="10px" text-anchor="start" x="793" y="209.3">+getMilk()</text><text font-family="Arial" font-size="10px" text-anchor="start" x="793" y="220.3">+returnwithMilk()</text><line marker-start="url(#id2)" stroke="black" x1="790.0" x2="614.0" y1="195.0" y2="195.0" /><line marker-end="url(#arrow)" stroke="black" x1="790.0" x2="614.0" y1="195.0" y2="195.0" /><line marker-end="url(#id1)" stroke="black" x1="790.0" x2="614.0" y1="195.0" y2="195.0" /><line marker-start="url(#id2)" stroke="black" x1="437.0" x2="437.0" y1="392.0" y2="273.0" /><line marker-end="url(#arrow)" stroke="black" x1="437.0" x2="437.0" y1="392.0" y2="273.0" /><line marker-end="url(#id1)" stroke="black" x1="437.0" x2="437.0" y1="392.0" y2="273.0" /><line marker-start="url(#id2)" stroke="black" x1="841.0" x2="841.0" y1="378.0" y2="339.0" /><line stroke="black" x1="841.0" x2="841.0" y1="378.0" y2="339.0" /><line stroke="black" x1="841.0" x2="930.0" y1="339.0" y2="339.0" /><line stroke="black" x1="930.0" x2="930.0" y1="339.0" y2="428.0" /><line marker-end="url(#arrow)" stroke="black" x1="930.0" x2="891.0" y1="428.0" y2="428.0" /><line marker-end="url(#id1)" stroke="black" x1="930.0" x2="891.0" y1="428.0" y2="428.0" /><rect fill="#7ACFF5" height="110" stroke="black" width="123" x="366" y="393" /><text font-family="Arial" font-size="11px" text-anchor="middle" x="427.5" y="404">sumInterface</text><line stroke="black" x1="366" x2="489" y1="406" y2="406" /><text font-family="Arial" font-size="10px" text-anchor="start" x="368" y="416.3">- att1</text><text font-family="Arial" font-size="10px" text-anchor="start" x="368" y="427.3"># att34</text><text font-family="Arial" font-size="10px" text-anchor="start" x="368" y="438.3">+ s</text><line stroke="black" x1="366" x2="489" y1="440.3" y2="440.3" /><text font-family="Arial" font-size="10px" text-anchor="start" x="368" y="450.3">+csd()</text><line marker-start="url(#id2)" stroke="black" x1="790.0" x2="614.0" y1="195.0" y2="195.0" /><line marker-end="url(#arrow)" stroke="black" x1="790.0" x2="614.0" y1="195.0" y2="195.0" /><line marker-end="url(#id1)" stroke="black" x1="790.0" x2="614.0" y1="195.0" y2="195.0" /><line marker-start="url(#id2)" stroke="black" x1="437.0" x2="437.0" y1="392.0" y2="273.0" /><line marker-end="url(#arrow)" stroke="black" x1="437.0" x2="437.0" y1="392.0" y2="273.0" /><line marker-end="url(#id1)" stroke="black" x1="437.0" x2="437.0" y1="392.0" y2="273.0" /><line marker-start="url(#id2)" stroke="black" x1="841.0" x2="841.0" y1="378.0" y2="339.0" /><line stroke="black" x1="841.0" x2="841.0" y1="378.0" y2="339.0" /><line stroke="black" x1="841.0" x2="930.0" y1="339.0" y2="339.0" /><line stroke="black" x1="930.0" x2="930.0" y1="339.0" y2="428.0" /><line marker-end="url(#arrow)" stroke="black" x1="930.0" x2="891.0" y1="428.0" y2="428.0" /><line marker-end="url(#id1)" stroke="black" x1="930.0" x2="891.0" y1="428.0" y2="428.0" /><rect fill="#7ACFF5" height="98" stroke="black" width="97" x="793" y="379" /><text font-family="Arial" font-size="11px" text-anchor="middle" x="841.5" y="390">enum</text><line stroke="black" x1="793" x2="890" y1="392" y2="392" /><text font-family="Arial" font-size="10px" text-anchor="start" x="795" y="402.3">- enum</text><text font-family="Arial" font-size="10px" text-anchor="start" x="795" y="413.3">- enum1</text><text font-family="Arial" font-size="10px" text-anchor="start" x="795" y="424.3">- enum2</text><text font-family="Arial" font-size="10px" text-anchor="start" x="795" y="435.3">- enum3</text><line marker-start="url(#id2)" stroke="black" x1="790.0" x2="614.0" y1="195.0" y2="195.0" /><line marker-end="url(#arrow)" stroke="black" x1="790.0" x2="614.0" y1="195.0" y2="195.0" /><line marker-end="url(#id1)" stroke="black" x1="790.0" x2="614.0" y1="195.0" y2="195.0" /><line marker-start="url(#id2)" stroke="black" x1="437.0" x2="437.0" y1="392.0" y2="273.0" /><line marker-end="url(#arrow)" stroke="black" x1="437.0" x2="437.0" y1="392.0" y2="273.0" /><line marker-end="url(#id1)" stroke="black" x1="437.0" x2="437.0" y1="392.0" y2="273.0" /><line marker-start="url(#id2)" stroke="black" x1="841.0" x2="841.0" y1="378.0" y2="339.0" /><line stroke="black" x1="841.0" x2="841.0" y1="378.0" y2="339.0" /><line stroke="black" x1="841.0" x2="930.0" y1="339.0" y2="339.0" /><line stroke="black" x1="930.0" x2="930.0" y1="339.0" y2="428.0" /><line marker-end="url(#arrow)" stroke="black" x1="930.0" x2="891.0" y1="428.0" y2="428.0" /><line marker-end="url(#id1)" stroke="black" x1="930.0" x2="891.0" y1="428.0" y2="428.0" /></svg>