<?xml version="1.0" encoding="utf-8" ?>
<svg baseProfile="full" height="1600px" version="1.1" width="2000px" xmlns="http://www.w3.org/2000/svg" xmlns:ev="http://www.w3.org/2001/xml-events" xmlns:xlink="http://www.w3.org/1999/xlink"><defs><marker id="id1" markerHeight="10" markerWidth="10" orient="auto" refX="5" refY="5"><circle cx="5" cy="5" fill="black" r="3" /></marker><marker id="arrow" markerHeight="10" markerWidth="10" orient="auto" refX="10" refY="5"><path d="M0,0 L0,10 L10,5 Z" fill="black" /></marker><marker id="id2" markerHeight="20" markerWidth="20" orient="auto" refX="0" refY="10"><line stroke="black" stroke-width="1" x1="5" x2="15" y1="0" y2="20" /><line stroke="black" stroke-width="1" x1="5" x2="15" y1="20" y2="0" /></marker></defs><rect fill="#7ACFF5" height="235" stroke="black" width="325" x="782" y="195" /><text font-family="Arial" font-size="11px" text-anchor="middle" x="944.5" y="206">Klient</text><line stroke="black" x1="782" x2="1107" y1="208" y2="208" /><text font-family="Arial" font-size="10px" text-anchor="start" x="784" y="218.3">-rezerwacje</text><text font-family="Arial" font-size="10px" text-anchor="start" x="784" y="229.3">-imie</text><text font-family="Arial" font-size="10px" text-anchor="start" x="784" y="240.3">-nazwisko</text><text font-family="Arial" font-size="10px" text-anchor="start" x="784" y="251.3">-pesel</text><line stroke="black" x1="782" x2="1107" y1="253.3" y2="253.3" /><text font-family="Arial" font-size="10px" text-anchor="start" x="784" y="263.3">+getRezerwacje()</text><text font-family="Arial" font-size="10px" text-anchor="start" x="784" y="274.3">+setRezerwacje()</text><text font-family="Arial" font-size="10px" text-anchor="start" x="784" y="285.3">+getImie()</text><text font-family="Arial" font-size="10px" text-anchor="start" x="784" y="296.3">+setImie()</text><text font-family="Arial" font-size="10px" text-anchor="start" x="784" y="307.3">+getNazwisko()</text><text font-family="Arial" font-size="10px" text-anchor="start" x="784" y="318.3">+setNazwisko()</text><text font-family="Arial" font-size="10px" text-anchor="start" x="784" y="329.3">+getPesel()</text><text font-family="Arial" font-size="10px" text-anchor="start" x="784" y="340.3">+setPesel()</text><line marker-start="url(#id2)" stroke="black" x1="1165.0" x2="1289.0" y1="563.0" y2="563.0" /><line stroke="black" x1="1165.0" x2="1289.0" y1="563.0" y2="563.0" /><line marker-end="url(#arrow)" stroke="black" x1="1289.0" x2="1289.0" y1="563.0" y2="462.0" /><line marker-end="url(#id1)" stroke="black" x1="1289.0" x2="1289.0" y1="563.0" y2="462.0" /><line marker-start="url(#id2)" stroke="black" x1="1003.0" x2="1003.0" y1="431.0" y2="499.0" /><line marker-end="url(#arrow)" stroke="black" x1="1003.0" x2="1003.0" y1="431.0" y2="499.0" /><line marker-end="url(#id1)" stroke="black" x1="1003.0" x2="1003.0" y1="431.0" y2="499.0" /><line marker-start="url(#id2)" stroke="black" x1="705.0" x2="780.0" y1="310.0" y2="310.0" /><line marker-end="url(#arrow)" stroke="black" x1="705.0" x2="780.0" y1="310.0" y2="310.0" /><line marker-end="url(#id1)" stroke="black" x1="705.0" x2="780.0" y1="310.0" y2="310.0" /><line marker-start="url(#id2)" stroke="black" x1="705.0" x2="815.0" y1="510.0" y2="510.0" /><line marker-end="url(#arrow)" stroke="black" x1="705.0" x2="815.0" y1="510.0" y2="510.0" /><line marker-end="url(#id1)" stroke="black" x1="705.0" x2="815.0" y1="510.0" y2="510.0" /><line marker-start="url(#id2)" stroke="black" x1="512.0" x2="512.0" y1="530.0" y2="591.0" /><line marker-end="url(#arrow)" stroke="black" x1="512.0" x2="512.0" y1="530.0" y2="591.0" /><line marker-end="url(#id1)" stroke="black" x1="512.0" x2="512.0" y1="530.0" y2="591.0" /><line marker-start="url(#id2)" stroke="black" x1="1471.0" x2="1401.0" y1="320.0" y2="320.0" /><line marker-end="url(#arrow)" stroke="black" x1="1471.0" x2="1401.0" y1="320.0" y2="320.0" /><line marker-end="url(#id1)" stroke="black" x1="1471.0" x2="1401.0" y1="320.0" y2="320.0" /><rect fill="#7ACFF5" height="297" stroke="black" width="208" x="1192" y="164" /><text font-family="Arial" font-size="11px" text-anchor="middle" x="1296.0" y="175">Pokój</text><line stroke="black" x1="1192" x2="1400" y1="177" y2="177" /><text font-family="Arial" font-size="10px" text-anchor="start" x="1194" y="187.3">-nrPokoju</text><text font-family="Arial" font-size="10px" text-anchor="start" x="1194" y="198.3">-wolny</text><text font-family="Arial" font-size="10px" text-anchor="start" x="1194" y="209.3">-rozmiar</text><text font-family="Arial" font-size="10px" text-anchor="start" x="1194" y="220.3">-piętro</text><text font-family="Arial" font-size="10px" text-anchor="start" x="1194" y="231.3">-idPokoju</text><text font-family="Arial" font-size="10px" text-anchor="start" x="1194" y="242.3">-cenaZaNoc</text><text font-family="Arial" font-size="10px" text-anchor="start" x="1194" y="253.3">-pokoje</text><line stroke="black" x1="1192" x2="1400" y1="255.3" y2="255.3" /><text font-family="Arial" font-size="10px" text-anchor="start" x="1194" y="265.3">+getNrPokoju()</text><text font-family="Arial" font-size="10px" text-anchor="start" x="1194" y="276.3">+setNrPokoju()</text><text font-family="Arial" font-size="10px" text-anchor="start" x="1194" y="287.3">+getWolny()</text><text font-family="Arial" font-size="10px" text-anchor="start" x="1194" y="298.3">+setWolny()</text><text font-family="Arial" font-size="10px" text-anchor="start" x="1194" y="309.3">+getRozmiar()</text><text font-family="Arial" font-size="10px" text-anchor="start" x="1194" y="320.3">+setRozmiar()</text><text font-family="Arial" font-size="10px" text-anchor="start" x="1194" y="331.3">+getPiętro()</text><text font-family="Arial" font-size="10px" text-anchor="start" x="1194" y="342.3">+setPiętro()</text><text font-family="Arial" font-size="10px" text-anchor="start" x="1194" y="353.3">+getIdPokoju()</text><text font-family="Arial" font-size="10px" text-anchor="start" x="1194" y="364.3">+setIdPokoju()</text><text font-family="Arial" font-size="10px" text-anchor="start" x="1194" y="375.3">+pokazWolnePokoje()</text><line marker-start="url(#id2)" stroke="black" x1="1165.0" x2="1289.0" y1="563.0" y2="563.0" /><line stroke="black" x1="1165.0" x2="1289.0" y1="563.0" y2="563.0" /><line marker-end="url(#arrow)" stroke="black" x1="1289.0" x2="1289.0" y1="563.0" y2="462.0" /><line marker-end="url(#id1)" stroke="black" x1="1289.0" x2="1289.0" y1="563.0" y2="462.0" /><line marker-start="url(#id2)" stroke="black" x1="1003.0" x2="1003.0" y1="431.0" y2="499.0" /><line marker-end="url(#arrow)" stroke="black" x1="1003.0" x2="1003.0" y1="431.0" y2="499.0" /><line marker-end="url(#id1)" stroke="black" x1="1003.0" x2="1003.0" y1="431.0" y2="499.0" /><line marker-start="url(#id2)" stroke="black" x1="705.0" x2="780.0" y1="310.0" y2="310.0" /><line marker-end="url(#arrow)" stroke="black" x1="705.0" x2="780.0" y1="310.0" y2="310.0" /><line marker-end="url(#id1)" stroke="black" x1="705.0" x2="780.0" y1="310.0" y2="310.0" /><line marker-start="url(#id2)" stroke="black" x1="705.0" x2="815.0" y1="510.0" y2="510.0" /><line marker-end="url(#arrow)" stroke="black" x1="705.0" x2="815.0" y1="510.0" y2="510.0" /><line marker-end="url(#id1)" stroke="black" x1="705.0" x2="815.0" y1="510.0" y2="510.0" /><line marker-start="url(#id2)" stroke="black" x1="512.0" x2="512.0" y1="530.0" y2="591.0" /><line marker-end="url(#arrow)" stroke="black" x1="512.0" x2="512.0" y1="530.0" y2="591.0" /><line marker-end="url(#id1)" stroke="black" x1="512.0" x2="512.0" y1="530.0" y2="591.0" /><line marker-start="url(#id2)" stroke="black" x1="1471.0" x2="1401.0" y1="320.0" y2="320.0" /><line marker-end="url(#arrow)" stroke="black" x1="1471.0" x2="1401.0" y1="320.0" y2="320.0" /><line marker-end="url(#id1)" stroke="black" x1="1471.0" x2="1401.0" y1="320.0" y2="320.0" /><rect fill="#7ACFF5" height="177" stroke="black" width="256" x="1472" y="233" /><text font-family="Arial" font-size="11px" text-anchor="middle" x="1600.0" y="244">Hotel</text><line stroke="black" x1="1472" x2="1728" y1="246" y2="246" /><text font-family="Arial" font-size="10px" text-anchor="start" x="1474" y="256.3">-nazwa</text><text font-family="Arial" font-size="10px" text-anchor="start" x="1474" y="267.3">-ilośćPokoi</text><text font-family="Arial" font-size="10px" text-anchor="start" x="1474" y="278.3">-listaPokoi</text><text font-family="Arial" font-size="10px" text-anchor="start" x="1474" y="289.3">-lokalizacja</text><line stroke="black" x1="1472" x2="1728" y1="291.3" y2="291.3" /><text font-family="Arial" font-size="10px" text-anchor="start" x="1474" y="301.3">+getNazwa()</text><text font-family="Arial" font-size="10px" text-anchor="start" x="1474" y="312.3">+getIlośćPokoi()</text><text font-family="Arial" font-size="10px" text-anchor="start" x="1474" y="323.3">+getListaPokoi()</text><text font-family="Arial" font-size="10px" text-anchor="start" x="1474" y="334.3">+getLokalizacja()</text><text font-family="Arial" font-size="10px" text-anchor="start" x="1474" y="345.3">+pokazWolnePokoje()</text><text font-family="Arial" font-size="10px" text-anchor="start" x="1474" y="356.3">+addRoom()</text><line marker-start="url(#id2)" stroke="black" x1="1165.0" x2="1289.0" y1="563.0" y2="563.0" /><line stroke="black" x1="1165.0" x2="1289.0" y1="563.0" y2="563.0" /><line marker-end="url(#arrow)" stroke="black" x1="1289.0" x2="1289.0" y1="563.0" y2="462.0" /><line marker-end="url(#id1)" stroke="black" x1="1289.0" x2="1289.0" y1="563.0" y2="462.0" /><line marker-start="url(#id2)" stroke="black" x1="1003.0" x2="1003.0" y1="431.0" y2="499.0" /><line marker-end="url(#arrow)" stroke="black" x1="1003.0" x2="1003.0" y1="431.0" y2="499.0" /><line marker-end="url(#id1)" stroke="black" x1="1003.0" x2="1003.0" y1="431.0" y2="499.0" /><line marker-start="url(#id2)" stroke="black" x1="705.0" x2="780.0" y1="310.0" y2="310.0" /><line marker-end="url(#arrow)" stroke="black" x1="705.0" x2="780.0" y1="310.0" y2="310.0" /><line marker-end="url(#id1)" stroke="black" x1="705.0" x2="780.0" y1="310.0" y2="310.0" /><line marker-start="url(#id2)" stroke="black" x1="705.0" x2="815.0" y1="510.0" y2="510.0" /><line marker-end="url(#arrow)" stroke="black" x1="705.0" x2="815.0" y1="510.0" y2="510.0" /><line marker-end="url(#id1)" stroke="black" x1="705.0" x2="815.0" y1="510.0" y2="510.0" /><line marker-start="url(#id2)" stroke="black" x1="512.0" x2="512.0" y1="530.0" y2="591.0" /><line marker-end="url(#arrow)" stroke="black" x1="512.0" x2="512.0" y1="530.0" y2="591.0" /><line marker-end="url(#id1)" stroke="black" x1="512.0" x2="512.0" y1="530.0" y2="591.0" /><line marker-start="url(#id2)" stroke="black" x1="1471.0" x2="1401.0" y1="320.0" y2="320.0" /><line marker-end="url(#arrow)" stroke="black" x1="1471.0" x2="1401.0" y1="320.0" y2="320.0" /><line marker-end="url(#id1)" stroke="black" x1="1471.0" x2="1401.0" y1="320.0" y2="320.0" /><rect fill="#7ACFF5" height="357" stroke="black" width="347" x="817" y="500" /><text font-family="Arial" font-size="11px" text-anchor="middle" x="990.5" y="511">Rezerwacja</text><line stroke="black" x1="817" x2="1164" y1="513" y2="513" /><text font-family="Arial" font-size="10px" text-anchor="start" x="819" y="523.3">-idRezerwacji</text><text font-family="Arial" font-size="10px" text-anchor="start" x="819" y="534.3">-poczatek</text><text font-family="Arial" font-size="10px" text-anchor="start" x="819" y="545.3">-koniec</text><text font-family="Arial" font-size="10px" text-anchor="start" x="819" y="556.3">-akceptacja</text><text font-family="Arial" font-size="10px" text-anchor="start" x="819" y="567.3">-pokoje</text><text font-family="Arial" font-size="10px" text-anchor="start" x="819" y="578.3">-klient</text><line stroke="black" x1="817" x2="1164" y1="580.3" y2="580.3" /><text font-family="Arial" font-size="10px" text-anchor="start" x="819" y="590.3">+getIdRezerwacji()</text><text font-family="Arial" font-size="10px" text-anchor="start" x="819" y="601.3">+setIdRezerwacji()</text><text font-family="Arial" font-size="10px" text-anchor="start" x="819" y="612.3">+getPoczątek()</text><text font-family="Arial" font-size="10px" text-anchor="start" x="819" y="623.3">+setPoczątek()</text><text font-family="Arial" font-size="10px" text-anchor="start" x="819" y="634.3">+getKoniec()</text><text font-family="Arial" font-size="10px" text-anchor="start" x="819" y="645.3">+setKoniec()</text><text font-family="Arial" font-size="10px" text-anchor="start" x="819" y="656.3">+getAkceptacja()</text><text font-family="Arial" font-size="10px" text-anchor="start" x="819" y="667.3">+setAkceptacja()</text><text font-family="Arial" font-size="10px" text-anchor="start" x="819" y="678.3">+getPokoje()</text><text font-family="Arial" font-size="10px" text-anchor="start" x="819" y="689.3">+setPokoje()</text><text font-family="Arial" font-size="10px" text-anchor="start" x="819" y="700.3">+getKlient()</text><text font-family="Arial" font-size="10px" text-anchor="start" x="819" y="711.3">+setKlient()</text><text font-family="Arial" font-size="10px" text-anchor="start" x="819" y="722.3">+acceptReservation()</text><text font-family="Arial" font-size="10px" text-anchor="start" x="819" y="733.3">+rejectReservation()</text><text font-family="Arial" font-size="10px" text-anchor="start" x="819" y="744.3">+toString()</text><text font-family="Arial" font-size="10px" text-anchor="start" x="819" y="755.3">+modyfikujRezerwację()</text><line marker-start="url(#id2)" stroke="black" x1="1165.0" x2="1289.0" y1="563.0" y2="563.0" /><line stroke="black" x1="1165.0" x2="1289.0" y1="563.0" y2="563.0" /><line marker-end="url(#arrow)" stroke="black" x1="1289.0" x2="1289.0" y1="563.0" y2="462.0" /><line marker-end="url(#id1)" stroke="black" x1="1289.0" x2="1289.0" y1="563.0" y2="462.0" /><line marker-start="url(#id2)" stroke="black" x1="1003.0" x2="1003.0" y1="431.0" y2="499.0" /><line marker-end="url(#arrow)" stroke="black" x1="1003.0" x2="1003.0" y1="431.0" y2="499.0" /><line marker-end="url(#id1)" stroke="black" x1="1003.0" x2="1003.0" y1="431.0" y2="499.0" /><line marker-start="url(#id2)" stroke="black" x1="705.0" x2="780.0" y1="310.0" y2="310.0" /><line marker-end="url(#arrow)" stroke="black" x1="705.0" x2="780.0" y1="310.0" y2="310.0" /><line marker-end="url(#id1)" stroke="black" x1="705.0" x2="780.0" y1="310.0" y2="310.0" /><line marker-start="url(#id2)" stroke="black" x1="705.0" x2="815.0" y1="510.0" y2="510.0" /><line marker-end="url(#arrow)" stroke="black" x1="705.0" x2="815.0" y1="510.0" y2="510.0" /><line marker-end="url(#id1)" stroke="black" x1="705.0" x2="815.0" y1="510.0" y2="510.0" /><line marker-start="url(#id2)" stroke="black" x1="512.0" x2="512.0" y1="530.0" y2="591.0" /><line marker-end="url(#arrow)" stroke="black" x1="512.0" x2="512.0" y1="530.0" y2="591.0" /><line marker-end="url(#id1)" stroke="black" x1="512.0" x2="512.0" y1="530.0" y2="591.0" /><line marker-start="url(#id2)" stroke="black" x1="1471.0" x2="1401.0" y1="320.0" y2="320.0" /><line marker-end="url(#arrow)" stroke="black" x1="1471.0" x2="1401.0" y1="320.0" y2="320.0" /><line marker-end="url(#id1)" stroke="black" x1="1471.0" x2="1401.0" y1="320.0" y2="320.0" /><rect fill="#7ACFF5" height="171" stroke="black" width="262" x="382" y="593" /><text font-family="Arial" font-size="11px" text-anchor="middle" x="513.0" y="604">Pracownik</text><line stroke="black" x1="382" x2="644" y1="606" y2="606" /><text font-family="Arial" font-size="10px" text-anchor="start" x="384" y="616.3">-Imie</text><text font-family="Arial" font-size="10px" text-anchor="start" x="384" y="627.3">-nazwisko</text><line stroke="black" x1="382" x2="644" y1="629.3" y2="629.3" /><text font-family="Arial" font-size="10px" text-anchor="start" x="384" y="639.3">+getImie()</text><text font-family="Arial" font-size="10px" text-anchor="start" x="384" y="650.3">+setImie()</text><text font-family="Arial" font-size="10px" text-anchor="start" x="384" y="661.3">+getNazwisko()</text><text font-family="Arial" font-size="10px" text-anchor="start" x="384" y="672.3">+setNazwisko()</text><text font-family="Arial" font-size="10px" text-anchor="start" x="384" y="683.3">+Login()</text><line marker-start="url(#id2)" stroke="black" x1="1165.0" x2="1289.0" y1="563.0" y2="563.0" /><line stroke="black" x1="1165.0" x2="1289.0" y1="563.0" y2="563.0" /><line marker-end="url(#arrow)" stroke="black" x1="1289.0" x2="1289.0" y1="563.0" y2="462.0" /><line marker-end="url(#id1)" stroke="black" x1="1289.0" x2="1289.0" y1="563.0" y2="462.0" /><line marker-start="url(#id2)" stroke="black" x1="1003.0" x2="1003.0" y1="431.0" y2="499.0" /><line marker-end="url(#arrow)" stroke="black" x1="1003.0" x2="1003.0" y1="431.0" y2="499.0" /><line marker-end="url(#id1)" stroke="black" x1="1003.0" x2="1003.0" y1="431.0" y2="499.0" /><line marker-start="url(#id2)" stroke="black" x1="705.0" x2="780.0" y1="310.0" y2="310.0" /><line marker-end="url(#arrow)" stroke="black" x1="705.0" x2="780.0" y1="310.0" y2="310.0" /><line marker-end="url(#id1)" stroke="black" x1="705.0" x2="780.0" y1="310.0" y2="310.0" /><line marker-start="url(#id2)" stroke="black" x1="705.0" x2="815.0" y1="510.0" y2="510.0" /><line marker-end="url(#arrow)" stroke="black" x1="705.0" x2="815.0" y1="510.0" y2="510.0" /><line marker-end="url(#id1)" stroke="black" x1="705.0" x2="815.0" y1="510.0" y2="510.0" /><line marker-start="url(#id2)" stroke="black" x1="512.0" x2="512.0" y1="530.0" y2="591.0" /><line marker-end="url(#arrow)" stroke="black" x1="512.0" x2="512.0" y1="530.0" y2="591.0" /><line marker-end="url(#id1)" stroke="black" x1="512.0" x2="512.0" y1="530.0" y2="591.0" /><line marker-start="url(#id2)" stroke="black" x1="1471.0" x2="1401.0" y1="320.0" y2="320.0" /><line marker-end="url(#arrow)" stroke="black" x1="1471.0" x2="1401.0" y1="320.0" y2="320.0" /><line marker-end="url(#id1)" stroke="black" x1="1471.0" x2="1401.0" y1="320.0" y2="320.0" /><rect fill="#7ACFF5" height="252" stroke="black" width="457" x="248" y="278" /><text font-family="Arial" font-size="11px" text-anchor="middle" x="476.5" y="289">Aplikacja</text><line stroke="black" x1="248" x2="705" y1="291" y2="291" /><text font-family="Arial" font-size="10px" text-anchor="start" x="250" y="301.3">-rezerwacje</text><text font-family="Arial" font-size="10px" text-anchor="start" x="250" y="312.3">-klienci</text><text font-family="Arial" font-size="10px" text-anchor="start" x="250" y="323.3">-pracownicy</text><line stroke="black" x1="248" x2="705" y1="325.3" y2="325.3" /><text font-family="Arial" font-size="10px" text-anchor="start" x="250" y="335.3">+getRezerwacje()</text><text font-family="Arial" font-size="10px" text-anchor="start" x="250" y="346.3">+setRezerwacje()</text><text font-family="Arial" font-size="10px" text-anchor="start" x="250" y="357.3">+getKlienci()</text><text font-family="Arial" font-size="10px" text-anchor="start" x="250" y="368.3">+setKlienci()</text><text font-family="Arial" font-size="10px" text-anchor="start" x="250" y="379.3">+getPracownicy()</text><text font-family="Arial" font-size="10px" text-anchor="start" x="250" y="390.3">+setPracownicy()</text><text font-family="Arial" font-size="10px" text-anchor="start" x="250" y="401.3">+newReservation()</text><text font-family="Arial" font-size="10px" text-anchor="start" x="250" y="412.3">+showListOfReservation()</text><text font-family="Arial" font-size="10px" text-anchor="start" x="250" y="423.3">+sprawdzenieStanuRezerwacji()</text><text font-family="Arial" font-size="10px" text-anchor="start" x="250" y="434.3">+modyfikacjaRezerwacji()</text><text font-family="Arial" font-size="10px" text-anchor="start" x="250" y="445.3">+createReservation()</text><line marker-start="url(#id2)" stroke="black" x1="1165.0" x2="1289.0" y1="563.0" y2="563.0" /><line stroke="black" x1="1165.0" x2="1289.0" y1="563.0" y2="563.0" /><line marker-end="url(#arrow)" stroke="black" x1="1289.0" x2="1289.0" y1="563.0" y2="462.0" /><line marker-end="url(#id1)" stroke="black" x1="1289.0" x2="1289.0" y1="563.0" y2="462.0" /><line marker-start="url(#id2)" stroke="black" x1="1003.0" x2="1003.0" y1="431.0" y2="499.0" /><line marker-end="url(#arrow)" stroke="black" x1="1003.0" x2="1003.0" y1="431.0" y2="499.0" /><line marker-end="url(#id1)" stroke="black" x1="1003.0" x2="1003.0" y1="431.0" y2="499.0" /><line marker-start="url(#id2)" stroke="black" x1="705.0" x2="780.0" y1="310.0" y2="310.0" /><line marker-end="url(#arrow)" stroke="black" x1="705.0" x2="780.0" y1="310.0" y2="310.0" /><line marker-end="url(#id1)" stroke="black" x1="705.0" x2="780.0" y1="310.0" y2="310.0" /><line marker-start="url(#id2)" stroke="black" x1="705.0" x2="815.0" y1="510.0" y2="510.0" /><line marker-end="url(#arrow)" stroke="black" x1="705.0" x2="815.0" y1="510.0" y2="510.0" /><line marker-end="url(#id1)" stroke="black" x1="705.0" x2="815.0" y1="510.0" y2="510.0" /><line marker-start="url(#id2)" stroke="black" x1="512.0" x2="512.0" y1="530.0" y2="591.0" /><line marker-end="url(#arrow)" stroke="black" x1="512.0" x2="512.0" y1="530.0" y2="591.0" /><line marker-end="url(#id1)" stroke="black" x1="512.0" x2="512.0" y1="530.0" y2="591.0" /><line marker-start="url(#id2)" stroke="black" x1="1471.0" x2="1401.0" y1="320.0" y2="320.0" /><line marker-end="url(#arrow)" stroke="black" x1="1471.0" x2="1401.0" y1="320.0" y2="320.0" /><line marker-end="url(#id1)" stroke="black" x1="1471.0" x2="1401.0" y1="320.0" y2="320.0" /></svg>