<?xml version="1.0" encoding="utf-8" ?>
<svg baseProfile="full" height="1200" version="1.1" width="1200" xmlns="http://www.w3.org/2000/svg" xmlns:ev="http://www.w3.org/2001/xml-events" xmlns:xlink="http://www.w3.org/1999/xlink"><defs /><rect fill="white" height="150" stroke="black" width="200" x="900.0" y="525.0" /><text fill="black" x="910.0" y="545.0">Class: Person</text><line stroke="black" x1="900.0" x2="1100.0" y1="555.0" y2="555.0" /><text fill="black" x="910.0" y="565.0">+ name: String</text><text fill="black" x="910.0" y="585.0">- age: int</text><line stroke="black" stroke-dasharray="5,5" x1="900.0" x2="1100.0" y1="595.0" y2="595.0" /><text fill="blue" x="910.0" y="605.0">+ getDetails(): String</text><rect fill="white" height="150" stroke="black" width="200" x="749.3959207434934" y="837.732592987212" /><text fill="black" x="759.3959207434934" y="857.732592987212">Class: Employee</text><line stroke="black" x1="749.3959207434934" x2="949.3959207434934" y1="867.732592987212" y2="867.732592987212" /><text fill="black" x="759.3959207434934" y="877.732592987212">+ employeeId: int</text><text fill="black" x="759.3959207434934" y="897.732592987212">- department: String</text><line stroke="black" stroke-dasharray="5,5" x1="749.3959207434934" x2="949.3959207434934" y1="907.732592987212" y2="907.732592987212" /><text fill="blue" x="759.3959207434934" y="917.732592987212">+ calculateSalary(): float</text><rect fill="white" height="150" stroke="black" width="200" x="410.99162641747427" y="914.9711648727294" /><text fill="black" x="420.99162641747427" y="934.9711648727294">Class: Manager</text><line stroke="black" x1="410.99162641747427" x2="610.9916264174742" y1="944.9711648727294" y2="944.9711648727294" /><text fill="black" x="420.99162641747427" y="954.9711648727294"># level: int</text><line stroke="black" stroke-dasharray="5,5" x1="410.99162641747427" x2="610.9916264174742" y1="964.9711648727294" y2="964.9711648727294" /><text fill="blue" x="420.99162641747427" y="974.9711648727294">+ approveRequest(): boolean</text><rect fill="white" height="150" stroke="black" width="200" x="139.61245283903236" y="698.5534956470233" /><text fill="black" x="149.61245283903236" y="718.5534956470233">Class: Department</text><line stroke="black" x1="139.61245283903236" x2="339.61245283903236" y1="728.5534956470233" y2="728.5534956470233" /><text fill="black" x="149.61245283903236" y="738.5534956470233">+ departmentName: String</text><text fill="black" x="149.61245283903236" y="758.5534956470233">- location: String</text><line stroke="black" stroke-dasharray="5,5" x1="139.61245283903236" x2="339.61245283903236" y1="768.5534956470233" y2="768.5534956470233" /><rect fill="white" height="150" stroke="black" width="200" x="139.61245283903236" y="351.44650435297683" /><text fill="black" x="149.61245283903236" y="371.44650435297683">Class: Project</text><line stroke="black" x1="139.61245283903236" x2="339.61245283903236" y1="381.44650435297683" y2="381.44650435297683" /><text fill="black" x="149.61245283903236" y="391.44650435297683">+ projectName: String</text><text fill="black" x="149.61245283903236" y="411.44650435297683">- budget: float</text><line stroke="black" stroke-dasharray="5,5" x1="139.61245283903236" x2="339.61245283903236" y1="421.44650435297683" y2="421.44650435297683" /><text fill="blue" x="149.61245283903236" y="431.44650435297683">+ getBudget(): float</text><rect fill="white" height="150" stroke="black" stroke-dasharray="5,5" width="200" x="410.99162641747415" y="135.02883512727055" /><text fill="black" x="420.99162641747415" y="155.02883512727055">Class: AbstractEmployee</text><line stroke="black" x1="410.99162641747415" x2="610.9916264174742" y1="165.02883512727055" y2="165.02883512727055" /><text fill="black" x="420.99162641747415" y="175.02883512727055">+ employeeId: int</text><line stroke="black" stroke-dasharray="5,5" x1="410.99162641747415" x2="610.9916264174742" y1="185.02883512727055" y2="185.02883512727055" /><text fill="blue" x="420.99162641747415" y="195.02883512727055">+ calculateSalary(): float</text><rect fill="lightblue" height="150" stroke="black" width="200" x="749.3959207434933" y="212.26740701278806" /><text fill="black" x="759.3959207434933" y="232.26740701278806">Class: IEmployee</text><line stroke="black" x1="749.3959207434933" x2="949.3959207434933" y1="242.26740701278806" y2="242.26740701278806" /><line stroke="black" stroke-dasharray="5,5" x1="749.3959207434933" x2="949.3959207434933" y1="242.26740701278806" y2="242.26740701278806" /><text fill="blue" x="759.3959207434933" y="252.26740701278806">+ calculateSalary(): float</text><path d="M 963.8819035894354,675.0 Q 924.6979603717467,706.366296493606 885.514017154058,837.732592987212" fill="none" stroke="black" /><polygon fill="white" points="885.514017154058,832.732592987212 895.514017154058,837.732592987212 885.514017154058,842.732592987212" stroke="black" /><path d="M 749.3959207434934,935.556940426227 Q 680.1937735804838,901.3518789299708 610.9916264174742,967.1468174337144" fill="none" stroke="black" /><polygon fill="white" points="610.9916264174742,962.1468174337144 620.9916264174742,967.1468174337144 610.9916264174742,972.1468174337144" stroke="black" /><path d="M 416.94460109277145,914.9711648727294 Q 375.3020396282533,831.7623302598763 333.6594781637352,848.5534956470233" fill="none" stroke="black" /><polygon fill="white" points="333.6594781637352,843.5534956470233 343.6594781637352,848.5534956470233 333.6594781637352,853.5534956470233 323.6594781637352,848.5534956470233" stroke="black" /><path d="M 239.61245283903236,698.5534956470233 Q 239.61245283903236,550.0 239.61245283903236,501.44650435297683" fill="none" stroke="black" /><polygon fill="black" points="239.61245283903236,496.44650435297683 249.61245283903236,501.44650435297683 239.61245283903236,506.44650435297683 229.61245283903236,501.44650435297683" /><path d="M 755.3488954187907,837.732592987212 Q 544.5041867912629,619.5895486700945 333.6594781637351,501.44650435297683" fill="none" stroke="black" /><path d="M 474.8735300069096,914.9711648727294 Q 375.3020396282533,658.2088346128531 275.730549249597,501.44650435297683" fill="none" stroke="black" /><path d="M 239.61245283903236,501.44650435297683 Q 239.61245283903236,550.0 239.61245283903236,698.5534956470233" fill="none" stroke="black" /><polygon fill="white" points="239.61245283903236,693.5534956470233 249.61245283903236,698.5534956470233 239.61245283903236,703.5534956470233 229.61245283903236,698.5534956470233" stroke="black" /><path d="M 813.2778243329287,837.732592987212 Q 680.1937735804838,511.3807140572412 547.1097228280388,285.02883512727055" fill="none" stroke="black" /><polygon fill="white" points="547.1097228280388,280.02883512727055 557.1097228280388,285.02883512727055 547.1097228280388,290.02883512727055" stroke="black" /><path d="M 849.3959207434934,837.732592987212 Q 849.3959207434934,550.0 849.3959207434933,362.26740701278806" fill="none" stroke="black" stroke-dasharray="5 5" /><polygon fill="white" points="849.3959207434933,357.26740701278806 859.3959207434933,362.26740701278806 849.3959207434933,367.26740701278806" stroke="black" /></svg>