
    <svg width="800" height="600" xmlns="http://www.w3.org/2000/svg">
      <rect width="100%" height="100%" fill="lightblue"/>
      <g font-family="Arial" font-size="14">
        <rect x="100" y="50" width="300" height="400" fill="lightblue" stroke="black"/>
        <text x="110" y="70">system_char_ny</text>
        <circle cx="450" cy="100" r="10" fill="lightblue" stroke="black"/> <text x="470" y="105">Actor</text> <circle cx="450" cy="170" r="10" fill="lightblue" stroke="black"/> <text x="470" y="175">Actor2</text> <circle cx="450" cy="240" r="10" fill="lightblue" stroke="black"/> <text x="470" y="245">Actor</text> <circle cx="450" cy="310" r="10" fill="lightblue" stroke="black"/> <text x="470" y="315">Actor2</text> <ellipse cx="200" cy="100" rx="50" ry="20" fill="white" stroke="black"/> <text x="180" y="105">tada</text> <ellipse cx="200" cy="170" rx="50" ry="20" fill="white" stroke="black"/> <text x="180" y="175">tada2</text> <ellipse cx="200" cy="240" rx="50" ry="20" fill="white" stroke="black"/> <text x="180" y="245">duopa</text> <ellipse cx="200" cy="310" rx="50" ry="20" fill="white" stroke="black"/> <text x="180" y="315">myl;lk</text> <ellipse cx="200" cy="380" rx="50" ry="20" fill="white" stroke="black"/> <text x="180" y="385">tada</text> <ellipse cx="200" cy="450" rx="50" ry="20" fill="white" stroke="black"/> <text x="180" y="455">tada2</text> <ellipse cx="200" cy="520" rx="50" ry="20" fill="white" stroke="black"/> <text x="180" y="525">duopa</text> <ellipse cx="200" cy="590" rx="50" ry="20" fill="white" stroke="black"/> <text x="180" y="595">myl;lk</text> <line x1="450" y1="100" x2="250" y2="100" stroke="black" stroke-dasharray="5,5"/> <line x1="450" y1="240" x2="250" y2="380" stroke="black" stroke-dasharray="5,5"/>
      </g>
    </svg>
    