<?xml version="1.0" encoding="utf-8" ?>
<svg baseProfile="full" height="800px" version="1.1" width="1000px" xmlns="http://www.w3.org/2000/svg" xmlns:ev="http://www.w3.org/2001/xml-events" xmlns:xlink="http://www.w3.org/1999/xlink"><defs><marker id="arrow" markerHeight="10" markerWidth="10" orient="auto" refX="10" refY="5"><path d="M0,0 L0,10 L10,5 Z" fill="black" /></marker></defs><rect fill="#BFEFFF" height="100" rx="10" ry="10" stroke="black" width="150" x="343.0" y="272.0" /><text font-family="Arial" font-size="12px" text-anchor="middle" x="418.0" y="287.0">Modyfikacja Rezerwacji</text><text font-family="Arial" font-size="10px" text-anchor="start" x="348.0" y="307.0">pokoje.add(wolnePokoje.get(i));</text><text font-family="Arial" font-size="10px" text-anchor="start" x="348.0" y="322.0">iterator&lt;Pokoj&gt; it = wolnePokoje.iterator();</text><text font-family="Arial" font-size="10px" text-anchor="start" x="348.0" y="337.0" /><rect fill="#BFEFFF" height="85" rx="10" ry="10" stroke="black" width="150" x="155.0" y="106.5" /><text font-family="Arial" font-size="12px" text-anchor="middle" x="230.0" y="121.5">Akceptacja Rezerwacji</text><text font-family="Arial" font-size="10px" text-anchor="start" x="160.0" y="141.5">akceptacja = true;</text><text font-family="Arial" font-size="10px" text-anchor="start" x="160.0" y="156.5" /><rect fill="#BFEFFF" height="85" rx="10" ry="10" stroke="black" width="150" x="682.0" y="102.5" /><text font-family="Arial" font-size="12px" text-anchor="middle" x="757.0" y="117.5">Odrzucenie Rezerwacji</text><text font-family="Arial" font-size="10px" text-anchor="start" x="687.0" y="137.5">pokoje.forEach((e) -&gt; e.setWolny(true));</text><text font-family="Arial" font-size="10px" text-anchor="start" x="687.0" y="152.5" /><rect fill="#BFEFFF" height="70" rx="10" ry="10" stroke="black" width="150" x="415.0" y="121.0" /><text font-family="Arial" font-size="12px" text-anchor="middle" x="490.0" y="136.0">Identyfikacja Operacji</text><rect fill="#BFEFFF" height="70" rx="10" ry="10" stroke="black" width="150" x="458.0" y="36.0" /><text font-family="Arial" font-size="12px" text-anchor="middle" x="533.0" y="51.0" /><line marker-end="url(#arrow)" stroke="black" x1="490.0" x2="230.0" y1="156.0" y2="149.0" /><text font-family="Arial" font-size="10px" text-anchor="middle" x="360.0" y="147.5">acceptReservation()</text><line marker-end="url(#arrow)" stroke="black" x1="230.0" x2="490.0" y1="149.0" y2="156.0" /><text font-family="Arial" font-size="10px" text-anchor="middle" x="360.0" y="147.5" /><line marker-end="url(#arrow)" stroke="black" x1="490.0" x2="757.0" y1="156.0" y2="145.0" /><text font-family="Arial" font-size="10px" text-anchor="middle" x="623.5" y="145.5">rejectReservation()</text><line marker-end="url(#arrow)" stroke="black" x1="757.0" x2="490.0" y1="145.0" y2="156.0" /><text font-family="Arial" font-size="10px" text-anchor="middle" x="623.5" y="145.5" /><line marker-end="url(#arrow)" stroke="black" x1="533.0" x2="490.0" y1="71.0" y2="156.0" /><text font-family="Arial" font-size="10px" text-anchor="middle" x="511.5" y="108.5" /><line marker-end="url(#arrow)" stroke="black" x1="490.0" x2="418.0" y1="156.0" y2="322.0" /><text font-family="Arial" font-size="10px" text-anchor="middle" x="454.0" y="234.0" /><line marker-end="url(#arrow)" stroke="black" x1="418.0" x2="490.0" y1="322.0" y2="156.0" /><text font-family="Arial" font-size="10px" text-anchor="middle" x="454.0" y="234.0" /></svg>