<?xml version="1.0" encoding="utf-8" ?>
<svg baseProfile="full" height="800px" version="1.1" width="1000px" xmlns="http://www.w3.org/2000/svg" xmlns:ev="http://www.w3.org/2001/xml-events" xmlns:xlink="http://www.w3.org/1999/xlink"><defs><marker id="arrow" markerHeight="10" markerWidth="10" orient="auto" refX="10" refY="5"><path d="M0,0 L0,10 L10,5 Z" fill="black" /></marker></defs><rect fill="#000000" height="0" rx="10" ry="10" stroke="black" width="0" x="0" y="0" /><line stroke="black" x1="0" x2="0" y1="2" y2="2" /><rect fill="#000000" height="0" rx="10" ry="10" stroke="black" width="0" x="0" y="0" /><line stroke="black" x1="0" x2="0" y1="2" y2="2" /><rect fill="#7ACFF5" height="103" rx="10" ry="10" stroke="black" width="251" x="418" y="322" /><text font-family="Arial" font-size="11px" text-anchor="middle" x="543.5" y="333">Modyfikacja Rezerwacji</text><line stroke="black" x1="418" x2="669" y1="335" y2="335" /><text font-family="Arial" font-size="10px" text-anchor="start" x="420" y="336.3" /><text font-family="Arial" font-size="10px" text-anchor="start" x="420" y="347.3">iterator&lt;Pokoj&gt; it = wolnePokoje.iterator();</text><text font-family="Arial" font-size="10px" text-anchor="start" x="420" y="358.3">pokoje.add(wolnePokoje.get(i));</text><rect fill="#7ACFF5" height="62" rx="10" ry="10" stroke="black" width="121" x="230" y="149" /><text font-family="Arial" font-size="11px" text-anchor="middle" x="290.5" y="160">Akceptacja Rezerwacji</text><line stroke="black" x1="230" x2="351" y1="162" y2="162" /><text font-family="Arial" font-size="10px" text-anchor="start" x="232" y="163.3" /><text font-family="Arial" font-size="10px" text-anchor="start" x="232" y="174.3">akceptacja = true;</text><rect fill="#7ACFF5" height="69" rx="10" ry="10" stroke="black" width="227" x="757" y="145" /><text font-family="Arial" font-size="11px" text-anchor="middle" x="870.5" y="156">Odrzucenie Rezerwacji</text><line stroke="black" x1="757" x2="984" y1="158" y2="158" /><text font-family="Arial" font-size="10px" text-anchor="start" x="759" y="159.3" /><text font-family="Arial" font-size="10px" text-anchor="start" x="759" y="170.3">pokoje.forEach((e) -&gt; e.setWolny(true));</text><rect fill="#7ACFF5" height="40" rx="10" ry="10" stroke="black" width="107" x="490" y="156" /><text font-family="Arial" font-size="11px" text-anchor="middle" x="543.5" y="167">Identyfikacja Operacji</text><line stroke="black" x1="490" x2="597" y1="169" y2="169" /><rect fill="#7ACFF5" height="20" rx="10" ry="10" stroke="black" width="20" x="533" y="71" /><text font-family="Arial" font-size="11px" text-anchor="middle" x="543.0" y="102" /><line stroke="black" x1="533" x2="553" y1="84" y2="84" /><line marker-end="url(#arrow)" stroke="black" x1="490.0" x2="351.0" y1="165.0" y2="165.0" /><text font-family="Arial" font-size="10px" text-anchor="middle" x="421" y="162">acceptReservation()</text><line stroke="black" x1="283.0" x2="283.0" y1="210.0" y2="259.0" /><line stroke="black" x1="283.0" x2="510.0" y1="259.0" y2="259.0" /><line marker-end="url(#arrow)" stroke="black" x1="510.0" x2="510.0" y1="259.0" y2="196.0" /><text font-family="Arial" font-size="10px" text-anchor="middle" x="364" y="205" /><line marker-end="url(#arrow)" stroke="black" x1="597.0" x2="756.0" y1="169.0" y2="169.0" /><text font-family="Arial" font-size="10px" text-anchor="middle" x="679" y="177">rejectReservation()</text><line stroke="black" x1="796.0" x2="796.0" y1="215.0" y2="259.0" /><line stroke="black" x1="796.0" x2="581.0" y1="259.0" y2="259.0" /><line marker-end="url(#arrow)" stroke="black" x1="581.0" x2="581.0" y1="259.0" y2="196.0" /><text font-family="Arial" font-size="10px" text-anchor="middle" x="663" y="205" /><line marker-end="url(#arrow)" stroke="black" x1="543.0" x2="543.0" y1="90.0" y2="156.0" /><text font-family="Arial" font-size="10px" text-anchor="middle" x="625" y="98" /><line marker-end="url(#arrow)" stroke="black" x1="525.0" x2="525.0" y1="196.0" y2="322.0" /><text font-family="Arial" font-size="10px" text-anchor="middle" x="606" y="205" /><line marker-end="url(#arrow)" stroke="black" x1="556.0" x2="556.0" y1="322.0" y2="196.0" /><text font-family="Arial" font-size="10px" text-anchor="middle" x="637" y="205" /></svg>