<?xml version="1.0" encoding="utf-8" ?>
<svg baseProfile="full" height="1200" version="1.1" width="1600" xmlns="http://www.w3.org/2000/svg" xmlns:ev="http://www.w3.org/2001/xml-events" xmlns:xlink="http://www.w3.org/1999/xlink"><defs /><circle cx="100.0" cy="210.0" fill="blue" r="10" stroke="black" /><line stroke="black" x1="100.0" x2="100.0" y1="220.0" y2="260.0" /><line stroke="black" x1="100.0" x2="80.0" y1="220.0" y2="240.0" /><line stroke="black" x1="100.0" x2="120.0" y1="220.0" y2="240.0" /><line stroke="black" x1="100.0" x2="80.0" y1="260.0" y2="280.0" /><line stroke="black" x1="100.0" x2="120.0" y1="260.0" y2="280.0" /><text fill="black" text-anchor="middle" x="100.0" y="300.0">User</text><circle cx="100.0" cy="450.0" fill="blue" r="10" stroke="black" /><line stroke="black" x1="100.0" x2="100.0" y1="460.0" y2="500.0" /><line stroke="black" x1="100.0" x2="80.0" y1="460.0" y2="480.0" /><line stroke="black" x1="100.0" x2="120.0" y1="460.0" y2="480.0" /><line stroke="black" x1="100.0" x2="80.0" y1="500.0" y2="520.0" /><line stroke="black" x1="100.0" x2="120.0" y1="500.0" y2="520.0" /><text fill="black" text-anchor="middle" x="100.0" y="540.0">Admin</text><circle cx="100.0" cy="690.0" fill="blue" r="10" stroke="black" /><line stroke="black" x1="100.0" x2="100.0" y1="700.0" y2="740.0" /><line stroke="black" x1="100.0" x2="80.0" y1="700.0" y2="720.0" /><line stroke="black" x1="100.0" x2="120.0" y1="700.0" y2="720.0" /><line stroke="black" x1="100.0" x2="80.0" y1="740.0" y2="760.0" /><line stroke="black" x1="100.0" x2="120.0" y1="740.0" y2="760.0" /><text fill="black" text-anchor="middle" x="100.0" y="780.0">Client</text><circle cx="1100.0" cy="570.0" fill="blue" r="10" stroke="black" /><line stroke="black" x1="1100.0" x2="1100.0" y1="580.0" y2="620.0" /><line stroke="black" x1="1100.0" x2="1080.0" y1="580.0" y2="600.0" /><line stroke="black" x1="1100.0" x2="1120.0" y1="580.0" y2="600.0" /><line stroke="black" x1="1100.0" x2="1080.0" y1="620.0" y2="640.0" /><line stroke="black" x1="1100.0" x2="1120.0" y1="620.0" y2="640.0" /><text fill="black" text-anchor="middle" x="1100.0" y="660.0">Staff</text><circle cx="100.0" cy="930.0" fill="blue" r="10" stroke="black" /><line stroke="black" x1="100.0" x2="100.0" y1="940.0" y2="980.0" /><line stroke="black" x1="100.0" x2="80.0" y1="940.0" y2="960.0" /><line stroke="black" x1="100.0" x2="120.0" y1="940.0" y2="960.0" /><line stroke="black" x1="100.0" x2="80.0" y1="980.0" y2="1000.0" /><line stroke="black" x1="100.0" x2="120.0" y1="980.0" y2="1000.0" /><text fill="black" text-anchor="middle" x="100.0" y="1020.0">John</text><ellipse cx="400.0" cy="240.0" fill="white" rx="60" ry="30" stroke="black" /><text fill="black" text-anchor="middle" x="400.0" y="245.0">Login</text><ellipse cx="600.0" cy="480.0" fill="white" rx="60" ry="30" stroke="black" /><text fill="black" text-anchor="middle" x="600.0" y="485.0">ViewProfile</text><ellipse cx="600.0" cy="720.0" fill="white" rx="60" ry="30" stroke="black" /><text fill="black" text-anchor="middle" x="600.0" y="725.0">EditProfile</text><ellipse cx="400.0" cy="480.0" fill="white" rx="60" ry="30" stroke="black" /><text fill="black" text-anchor="middle" x="400.0" y="485.0">DeleteAccount</text><path d="M 100.0,220.0 Q 100.0,285.0 100.0,450.0" fill="none" stroke="black" /><polygon fill="white" points="100.0,445.0 110.0,450.0 100.0,455.0" stroke="black" /><path d="M 100.0,220.0 Q 100.0,405.0 100.0,690.0" fill="none" stroke="black" /><polygon fill="white" points="100.0,685.0 110.0,690.0 100.0,695.0" stroke="black" /><path d="M 100.0,220.0 Q 250.0,165.0 400.0,210.0" fill="none" stroke="black" stroke-dasharray="5 5" /><path d="M 100.0,220.0 Q 350.0,285.0 600.0,450.0" fill="none" stroke="black" stroke-dasharray="5 5" /><path d="M 100.0,220.0 Q 350.0,405.0 600.0,690.0" fill="none" stroke="black" stroke-dasharray="5 5" /><path d="M 100.0,460.0 Q 250.0,405.0 400.0,450.0" fill="none" stroke="black" stroke-dasharray="5 5" /><path d="M 100.0,460.0 Q 350.0,405.0 600.0,450.0" fill="none" stroke="black" stroke-dasharray="5 5" /><path d="M 100.0,700.0 Q 100.0,765.0 100.0,930.0" fill="none" stroke="black" /><polygon fill="white" points="100.0,925.0 110.0,930.0 100.0,935.0" stroke="black" /><path d="M 1100.0,580.0 Q 850.0,465.0 600.0,450.0" fill="none" stroke="black" stroke-dasharray="5 5" /><path d="M 1100.0,580.0 Q 850.0,585.0 600.0,690.0" fill="none" stroke="black" stroke-dasharray="5 5" /></svg>