<?xml version="1.0" encoding="utf-8" ?>
<svg baseProfile="tiny" height="100%" version="1.2" width="100%" xmlns="http://www.w3.org/2000/svg" xmlns:ev="http://www.w3.org/2001/xml-events" xmlns:xlink="http://www.w3.org/1999/xlink"><defs /><rect fill="#7acff5" height="500" stroke="black" width="603.2" x="88.8" y="0" /><text font-size="15" font-weight="bold" x="98.79999999999995" y="20">temporrary_system</text><circle cx="768" cy="171" fill="#7acff5" r="10" stroke="black" stroke-width="1" /><line stroke="black" x1="768" x2="768" y1="181" y2="211" /><line stroke="black" x1="768" x2="758" y1="191" y2="201" /><line stroke="black" x1="768" x2="778" y1="191" y2="201" /><line stroke="black" x1="768" x2="758" y1="211" y2="221" /><line stroke="black" x1="768" x2="778" y1="211" y2="221" /><text x="748" y="161">Actor1</text><circle cx="1017" cy="170" fill="#7acff5" r="10" stroke="black" stroke-width="1" /><line stroke="black" x1="1017" x2="1017" y1="180" y2="210" /><line stroke="black" x1="1017" x2="1007" y1="190" y2="200" /><line stroke="black" x1="1017" x2="1027" y1="190" y2="200" /><line stroke="black" x1="1017" x2="1007" y1="210" y2="220" /><line stroke="black" x1="1017" x2="1027" y1="210" y2="220" /><text x="997" y="160">Actor2</text><ellipse cx="406" cy="45" fill="none" rx="60" ry="30" stroke="black" /><text x="381" y="45">DoThing1</text><ellipse cx="257" cy="136" fill="none" rx="60" ry="30" stroke="black" /><text x="232" y="136">DoThing2</text><ellipse cx="257" cy="260" fill="none" rx="60" ry="30" stroke="black" /><text x="232" y="260">DoThing3</text><ellipse cx="413" cy="355" fill="none" rx="60" ry="30" stroke="black" /><text x="388" y="355">DoThing4</text><line stroke="rgb(0%,0%,0%)" x1="1017" x2="768" y1="190" y2="191" /><line stroke="rgb(0%,0%,0%)" x1="768" x2="413" y1="191" y2="355" /><line stroke="rgb(0%,0%,0%)" x1="768" x2="257" y1="191" y2="260" /><line stroke="rgb(0%,0%,0%)" x1="768" x2="257" y1="191" y2="136" /><line stroke="rgb(0%,0%,0%)" stroke-dasharray="5,5" x1="768" x2="406" y1="191" y2="45" /><line stroke="rgb(0%,0%,0%)" x1="409.9129" x2="406" y1="54.2027" y2="45" /><line stroke="rgb(0%,0%,0%)" x1="415.2027" x2="406" y1="41.0871" y2="45" /></svg>