<?xml version="1.0" encoding="utf-8" ?>
<svg baseProfile="tiny" height="100%" version="1.2" width="100%" xmlns="http://www.w3.org/2000/svg" xmlns:ev="http://www.w3.org/2001/xml-events" xmlns:xlink="http://www.w3.org/1999/xlink"><defs /><rect fill="lightblue" height="349" stroke="black" width="324" x="588" y="22" /><text font-size="15" font-weight="bold" x="598" y="42">system_char_ny</text><circle cx="955" cy="169" fill="blue" r="10" /><line stroke="black" x1="955" x2="955" y1="179" y2="209" /><line stroke="black" x1="955" x2="945" y1="189" y2="199" /><line stroke="black" x1="955" x2="965" y1="189" y2="199" /><line stroke="black" x1="955" x2="945" y1="209" y2="219" /><line stroke="black" x1="955" x2="965" y1="209" y2="219" /><text x="935" y="159">Actor</text><circle cx="1186" cy="169" fill="blue" r="10" /><line stroke="black" x1="1186" x2="1186" y1="179" y2="209" /><line stroke="black" x1="1186" x2="1176" y1="189" y2="199" /><line stroke="black" x1="1186" x2="1196" y1="189" y2="199" /><line stroke="black" x1="1186" x2="1176" y1="209" y2="219" /><line stroke="black" x1="1186" x2="1196" y1="209" y2="219" /><text x="1166" y="159">Actor2</text><ellipse cx="744" cy="96" fill="#3483eb" rx="60" ry="30" /><text x="719" y="96">tada</text><ellipse cx="733" cy="169" fill="#3483eb" rx="60" ry="30" /><text x="708" y="169">tada2</text><ellipse cx="733" cy="227" fill="#3483eb" rx="60" ry="30" /><text x="708" y="227">duopa</text><ellipse cx="744" cy="285" fill="#3483eb" rx="60" ry="30" /><text x="719" y="285">myl;lk</text><line stroke="rgb(0%,0%,0%)" x1="1186" x2="955" y1="189" y2="189" /><line stroke="rgb(0%,0%,0%)" x1="733" x2="955" y1="169" y2="189" /><line stroke="rgb(0%,0%,0%)" x1="733" x2="955" y1="227" y2="189" /><line stroke="rgb(0%,0%,0%)" x1="744" x2="955" y1="285" y2="189" /><line stroke="rgb(0%,0%,0%)" stroke-dasharray="5,5" x1="955" x2="744" y1="189" y2="96" /><line stroke="rgb(0%,0%,0%)" x1="747.6185" x2="744" y1="105.3223" y2="96" /><line stroke="rgb(0%,0%,0%)" x1="753.3223" x2="744" y1="92.3815" y2="96" /></svg>